<?xml version="1.0" encoding="UTF-8"?>
<svg version="1.1" xmlns="http://www.w3.org/2000/svg" width="600" height="600">
<path d="M0 0 C198 0 396 0 600 0 C600 198 600 396 600 600 C402 600 204 600 0 600 C0 402 0 204 0 0 Z " fill="#FEFEFE" transform="translate(0,0)"/>
<path d="M0 0 C3.14843802 24.51906655 3.14843802 24.51906655 -1.65673828 31.35791016 C-6.22486991 35.25952843 -11.64536427 37.4707491 -17.15917969 39.734375 C-21.89733039 41.84528711 -26.11860479 44.71144237 -30.4375 47.5625 C-31.97588911 48.54606543 -33.51613232 49.52673954 -35.05859375 50.50390625 C-35.74163574 50.94105957 -36.42467773 51.37821289 -37.12841797 51.82861328 C-38.73690384 52.83533324 -40.38305772 53.78141871 -42.03515625 54.71484375 C-43.00775391 55.35099609 -43.00775391 55.35099609 -44 56 C-44 56.66 -44 57.32 -44 58 C-41.38447676 59.65535499 -38.76182399 61.17917298 -36.0625 62.6875 C-35.23451904 63.17895508 -34.40653809 63.67041016 -33.5534668 64.17675781 C-28.53692455 67.13323838 -23.52655397 69.67983629 -18.171875 71.97265625 C-4.43108478 78.29842911 -4.43108478 78.29842911 0 84 C2.97867176 94.02625671 1.55037543 104.80950155 0 115 C-8.27862357 110.56143564 -16.40674862 105.89154919 -24.5 101.125 C-25.7685925 100.3793204 -27.03722944 99.63371641 -28.3059082 98.88818359 C-32.20578068 96.59524342 -36.1030904 94.29797092 -40 92 C-40.92108551 91.45714355 -40.92108551 91.45714355 -41.86077881 90.90332031 C-53.82089154 83.8542606 -65.7722095 76.79107523 -77.625 69.5625 C-78.37160889 69.10762207 -79.11821777 68.65274414 -79.88745117 68.18408203 C-85.81516123 64.5493339 -85.81516123 64.5493339 -86.8359375 61.515625 C-87.519989 57.37166082 -87.42434398 54.98304573 -86 51 C-81.1903585 46.0933777 -74.46908164 43.12740509 -68.484375 39.90917969 C-62.58762138 36.67819501 -56.84241644 33.19354711 -51.07452393 29.7394104 C-49.00002044 28.50001221 -46.92148704 27.26768839 -44.84130859 26.0378418 C-35.30126665 20.3970113 -25.84208915 14.63874057 -16.4453125 8.76171875 C-14.96441928 7.83973471 -13.48261117 6.91921892 -12 6 C-11.1037793 5.44393066 -10.20755859 4.88786133 -9.28417969 4.31494141 C-8.38344727 3.76370605 -7.48271484 3.2124707 -6.5546875 2.64453125 C-5.73210449 2.13897705 -4.90952148 1.63342285 -4.06201172 1.11254883 C-2 0 -2 0 0 0 Z " fill="#1D1D56" transform="translate(312,196)"/>
<path d="M0 0 C4.29183178 -0.05372251 8.58299786 -0.0935403 12.875 -0.125 C14.09832031 -0.14175781 15.32164062 -0.15851563 16.58203125 -0.17578125 C17.74863281 -0.18222656 18.91523438 -0.18867188 20.1171875 -0.1953125 C21.19597168 -0.20578613 22.27475586 -0.21625977 23.38623047 -0.22705078 C26 0 26 0 28 2 C28.25828552 3.83258057 28.25828552 3.83258057 28.27124023 6.07910156 C28.28142685 6.92047668 28.29161346 7.76185181 28.30210876 8.62872314 C28.30424881 9.54015076 28.30638885 10.45157837 28.30859375 11.390625 C28.33376314 13.31640915 28.35916102 15.24219033 28.38476562 17.16796875 C28.41346525 20.20718554 28.4374774 23.24635038 28.45629883 26.28564453 C28.47800897 29.21675225 28.51746445 32.14723474 28.55859375 35.078125 C28.55870956 35.98145569 28.55882538 36.88478638 28.5589447 37.81549072 C28.63898372 42.93980077 29.11443095 46.57817518 32 51 C34.05093145 52.40466953 34.05093145 52.40466953 36 53 C36.16276553 55.56506424 36.28113984 58.11975422 36.375 60.6875 C36.42527344 61.40873047 36.47554688 62.12996094 36.52734375 62.87304688 C36.67392271 68.22317886 36.67392271 68.22317886 34.67285156 70.52978516 C33.15567716 71.73908107 31.57945743 72.87326623 30 74 C29.06122843 76.81631472 28.85587262 78.62585656 28.81054688 81.54736328 C28.79382935 82.46486359 28.77711182 83.38236389 28.7598877 84.32766724 C28.74631226 85.31524017 28.73273682 86.30281311 28.71875 87.3203125 C28.70034058 88.33471405 28.68193115 89.3491156 28.66296387 90.39425659 C28.58417189 94.74140749 28.51635197 99.08871328 28.44775391 103.43603516 C28.39617716 106.60587589 28.33888327 109.77557706 28.28125 112.9453125 C28.26767456 113.9369339 28.25409912 114.9285553 28.2401123 115.95022583 C28.22339478 116.86142181 28.20667725 117.7726178 28.18945312 118.71142578 C28.17066101 119.92029953 28.17066101 119.92029953 28.15148926 121.15359497 C28 123 28 123 27 124 C25.00035018 124.08758003 22.9976389 124.10696576 20.99609375 124.09765625 C19.17368164 124.09282227 19.17368164 124.09282227 17.31445312 124.08789062 C16.03505859 124.07951172 14.75566406 124.07113281 13.4375 124.0625 C12.15423828 124.05798828 10.87097656 124.05347656 9.54882812 124.04882812 C6.3658658 124.03699555 3.18292726 124.01905944 0 124 C0 118.39 0 112.78 0 107 C2.97 107 5.94 107 9 107 C8.97905273 105.84999512 8.95810547 104.69999023 8.93652344 103.51513672 C8.86390937 99.23254944 8.81812271 94.95001617 8.78027344 90.66699219 C8.76020661 88.81631304 8.73294655 86.96569691 8.69824219 85.11523438 C8.64950567 82.44906023 8.62698213 79.78372713 8.609375 77.1171875 C8.57840729 75.88402298 8.57840729 75.88402298 8.54681396 74.62594604 C8.54468538 69.12802424 9.51883133 66.28219884 13 62 C12.71125 61.4225 12.4225 60.845 12.125 60.25 C11.75375 59.5075 11.3825 58.765 11 58 C10.6508252 57.46407227 10.30165039 56.92814453 9.94189453 56.37597656 C8.55586155 52.87963832 8.75484414 49.43698319 8.8046875 45.734375 C8.8075174 44.94097717 8.81034729 44.14757935 8.81326294 43.33013916 C8.82443221 40.80327083 8.84953056 38.27676068 8.875 35.75 C8.88503402 34.0338593 8.89415913 32.31771302 8.90234375 30.6015625 C8.92436086 26.40090426 8.95886813 22.2005128 9 18 C6.03 18 3.06 18 0 18 C0 12.06 0 6.12 0 0 Z " fill="#45ACDE" transform="translate(327,235)"/>
<path d="M0 0 C1.30859375 1.66723633 1.30859375 1.66723633 2.4375 3.83203125 C2.85588135 4.62520752 3.2742627 5.41838379 3.70532227 6.2355957 C4.13256592 7.08597412 4.55980957 7.93635254 5 8.8125 C5.44206787 9.67383545 5.88413574 10.5351709 6.33959961 11.42260742 C14.2254117 27.09303743 17.70679764 42.10944266 12.3359375 59.26953125 C10.86287133 63.38291776 9.27899898 67.42034095 7.5625 71.4375 C7.28656006 72.08750977 7.01062012 72.73751953 6.72631836 73.40722656 C4.65661622 78.05108721 2.05620069 81.93729754 -1 86 C-5.12751449 85.39301257 -8.3321148 83.96189209 -12 82 C-10.79238153 78.07073394 -9.30788016 74.4339852 -7.48657227 70.74951172 C0.41434608 54.7222327 2.15808457 40.3326866 -3.41796875 23.24609375 C-5.33955049 17.80927198 -7.95032234 12.79251494 -10.7421875 7.7578125 C-12 5 -12 5 -11 2 C-3.99621023 -1.70011535 -3.99621023 -1.70011535 0 0 Z " fill="#B8569D" transform="translate(409,203)"/>
<path d="M0 0 C5.28 0 10.56 0 16 0 C16 2.97 16 5.94 16 9 C14.35 9 12.7 9 11 9 C11 24.84 11 40.68 11 57 C12.98 57 14.96 57 17 57 C17 60.3 17 63.6 17 67 C11.39 67 5.78 67 0 67 C0 44.89 0 22.78 0 0 Z " fill="#E42562" transform="translate(323,129)"/>
<path d="M0 0 C5.28 0 10.56 0 16 0 C16 22.11 16 44.22 16 67 C10.72 67 5.44 67 0 67 C0 63.7 0 60.4 0 57 C1.65 57 3.3 57 5 57 C5 41.16 5 25.32 5 9 C3.35 9 1.7 9 0 9 C0 6.03 0 3.06 0 0 Z " fill="#EC2062" transform="translate(225,280)"/>
<path d="M0 0 C18.15 0 36.3 0 55 0 C55 4.95 55 9.9 55 15 C36.85 15 18.7 15 0 15 C0 10.05 0 5.1 0 0 Z " fill="#BA519C" transform="translate(265,354)"/>
<path d="M0 0 C1.93166016 0.01740234 1.93166016 0.01740234 3.90234375 0.03515625 C5.19269531 0.04417969 6.48304688 0.05320313 7.8125 0.0625 C8.81152344 0.07410156 9.81054688 0.08570313 10.83984375 0.09765625 C10.83984375 3.39765625 10.83984375 6.69765625 10.83984375 10.09765625 C9.18984375 10.09765625 7.53984375 10.09765625 5.83984375 10.09765625 C5.85031738 10.68256836 5.86079102 11.26748047 5.87158203 11.87011719 C5.91324639 14.52925288 5.93920276 17.18831978 5.96484375 19.84765625 C5.98160156 20.76804688 5.99835938 21.6884375 6.015625 22.63671875 C6.02207031 23.52617187 6.02851563 24.415625 6.03515625 25.33203125 C6.04562988 26.14897461 6.05610352 26.96591797 6.06689453 27.80761719 C5.81814291 30.31653143 5.09684504 31.9316125 3.83984375 34.09765625 C4.49984375 34.75765625 5.15984375 35.41765625 5.83984375 36.09765625 C6.06689453 38.25244141 6.06689453 38.25244141 6.03515625 40.88671875 C6.02548828 42.29824219 6.02548828 42.29824219 6.015625 43.73828125 C5.99886719 44.723125 5.98210937 45.70796875 5.96484375 46.72265625 C5.95582031 47.71523437 5.94679687 48.7078125 5.9375 49.73046875 C5.91388491 52.18643759 5.88095174 54.64192793 5.83984375 57.09765625 C7.48984375 57.09765625 9.13984375 57.09765625 10.83984375 57.09765625 C10.83984375 60.39765625 10.83984375 63.69765625 10.83984375 67.09765625 C8.52740583 67.12451037 6.21488105 67.14398466 3.90234375 67.16015625 C2.61457031 67.17175781 1.32679688 67.18335938 0 67.1953125 C-3.16015625 67.09765625 -3.16015625 67.09765625 -4.16015625 66.09765625 C-4.26941457 64.29141507 -4.31600635 62.48130788 -4.3359375 60.671875 C-4.35978516 59.56521484 -4.38363281 58.45855469 -4.40820312 57.31835938 C-4.45095479 54.97479096 -4.48232267 52.6309855 -4.50195312 50.28710938 C-4.52966797 49.17658203 -4.55738281 48.06605469 -4.5859375 46.921875 C-4.60052002 45.90182373 -4.61510254 44.88177246 -4.63012695 43.83081055 C-5.28734396 40.44179886 -6.61667544 39.34018493 -9.16015625 37.09765625 C-9.69140625 35.09765625 -9.69140625 35.09765625 -9.66015625 33.09765625 C-9.67046875 32.43765625 -9.68078125 31.77765625 -9.69140625 31.09765625 C-9.16015625 29.09765625 -9.16015625 29.09765625 -7.1628418 27.32299805 C-4.66423789 24.54660227 -4.64089288 23.17844896 -4.5859375 19.4921875 C-4.55822266 18.42677734 -4.53050781 17.36136719 -4.50195312 16.26367188 C-4.49228516 15.15701172 -4.48261719 14.05035156 -4.47265625 12.91015625 C-4.4307758 10.70826 -4.38539976 8.50642648 -4.3359375 6.3046875 C-4.32473877 5.32991455 -4.31354004 4.3551416 -4.30200195 3.35083008 C-4.07862186 -0.19749153 -3.64966695 0.11278328 0 0 Z " fill="#4BACDC" transform="translate(204.16015625,174.90234375)"/>
<path d="M0 0 C17.82 0 35.64 0 54 0 C54 4.95 54 9.9 54 15 C36.18 15 18.36 15 0 15 C0 10.05 0 5.1 0 0 Z " fill="#BA519D" transform="translate(266,324)"/>
<path d="M0 0 C4.67137147 -1.12025053 8.36789628 -1.403512 13 0 C17.06332895 3.99148498 19.32366537 9.60441696 21.80273438 14.65283203 C23.62544072 18.22613929 25.76784406 21.56759073 27.9375 24.9375 C28.76469822 26.24764035 29.59019658 27.55885537 30.4140625 28.87109375 C30.83204102 29.53608887 31.25001953 30.20108398 31.68066406 30.88623047 C34.54288505 35.47192797 37.34761948 40.09308781 40.15795898 44.71069336 C40.80099976 45.7665564 40.80099976 45.7665564 41.45703125 46.84375 C41.87291504 47.52824219 42.28879883 48.21273437 42.71728516 48.91796875 C43.60969852 50.36648439 44.51677724 51.8060248 45.43505859 53.23828125 C45.89348145 53.95371094 46.3519043 54.66914063 46.82421875 55.40625 C47.24147217 56.04884766 47.65872559 56.69144531 48.08862305 57.35351562 C49 59 49 59 49 61 C47.15421295 61.27277641 45.29648978 61.46533217 43.4375 61.625 C42.40496094 61.74101562 41.37242187 61.85703125 40.30859375 61.9765625 C34.81183634 60.35414296 32.84955568 55.73534469 30 51 C29.47929932 50.14889648 28.95859863 49.29779297 28.42211914 48.42089844 C26.85732801 45.81699797 25.33137977 43.19341675 23.8125 40.5625 C18.60578433 31.6438705 13.21147589 22.86916881 7.65625 14.1640625 C7.21796875 13.47602539 6.7796875 12.78798828 6.328125 12.07910156 C5.40581795 10.63528413 4.47835816 9.19475047 3.546875 7.75683594 C3.08796875 7.04043945 2.6290625 6.32404297 2.15625 5.5859375 C1.74181641 4.94446777 1.32738281 4.30299805 0.90039062 3.64208984 C0 2 0 2 0 0 Z " fill="#F6AC3E" transform="translate(250,134)"/>
<path d="M0 0 C3.53504381 1.32844843 6.70725224 2.89519078 9.94921875 4.828125 C10.88056641 5.38113281 11.81191406 5.93414062 12.77148438 6.50390625 C13.73376953 7.08011719 14.69605469 7.65632813 15.6875 8.25 C16.63044922 8.81074219 17.57339844 9.37148438 18.54492188 9.94921875 C20.43212569 11.07246171 22.31484195 12.20328051 24.19287109 13.34179688 C26.08073539 14.45697989 27.9966955 15.5257805 29.93603516 16.54882812 C36.7357231 20.22485325 36.7357231 20.22485325 38.05078125 24.08203125 C36.55909049 28.2243844 33.86561733 29.63970194 30.1875 31.6875 C29.48351074 32.10177246 28.77952148 32.51604492 28.05419922 32.94287109 C26.52896566 33.83644563 24.99773847 34.71984924 23.46142578 35.59423828 C20.88377501 37.06637805 18.32970992 38.57433195 15.77734375 40.08984375 C9.03438847 44.06876347 9.03438847 44.06876347 5.7890625 45.9453125 C4.76353271 46.54110107 4.76353271 46.54110107 3.71728516 47.14892578 C2 48 2 48 0 48 C-0.54026185 43.87800216 -0.76174 40.10288927 0 36 C2.544957 33.10879035 5.57901236 31.68670024 9 30 C10.48817969 29.05572355 11.96813073 28.09828863 13.4375 27.125 C16.74528302 25 16.74528302 25 19 25 C19 24.34 19 23.68 19 23 C18.32582031 22.74992187 17.65164063 22.49984375 16.95703125 22.2421875 C11.05921708 19.76463809 4.39174987 16.81948542 0 12 C-1.1819472 7.76426648 -0.91077454 4.2719663 0 0 Z " fill="#212056" transform="translate(368,289)"/>
<path d="M0 0 C1.37478516 0.01740234 1.37478516 0.01740234 2.77734375 0.03515625 C3.69644531 0.04417969 4.61554688 0.05320313 5.5625 0.0625 C6.27277344 0.07410156 6.98304688 0.08570313 7.71484375 0.09765625 C11.97310445 8.5122512 16.17088958 16.95264663 20.21484375 25.47265625 C20.56482422 26.20347412 20.91480469 26.93429199 21.27539062 27.68725586 C23.71484375 32.86127704 23.71484375 32.86127704 23.71484375 35.09765625 C20.74484375 35.09765625 17.77484375 35.09765625 14.71484375 35.09765625 C8.7578125 23.18359375 8.7578125 23.18359375 7.71240234 21.08496094 C6.8074744 19.28219211 5.88147077 17.49004096 4.953125 15.69921875 C3.71484375 13.09765625 3.71484375 13.09765625 3.71484375 11.09765625 C3.05484375 11.09765625 2.39484375 11.09765625 1.71484375 11.09765625 C1.46863281 11.9175 1.22242188 12.73734375 0.96875 13.58203125 C-0.49715351 17.6920411 -2.36223025 21.46914965 -4.34765625 25.34765625 C-4.71181641 26.06695312 -5.07597656 26.78625 -5.45117188 27.52734375 C-6.39256708 29.38577273 -7.33854362 31.2418794 -8.28515625 33.09765625 C-8.61515625 33.75765625 -8.94515625 34.41765625 -9.28515625 35.09765625 C-12.58515625 35.09765625 -15.88515625 35.09765625 -19.28515625 35.09765625 C-15.58139027 26.98249421 -11.79481855 18.90761189 -7.97265625 10.84765625 C-7.52809082 9.90639893 -7.08352539 8.9651416 -6.62548828 7.99536133 C-6.2076709 7.1164624 -5.78985352 6.23756348 -5.359375 5.33203125 C-4.98385498 4.54022461 -4.60833496 3.74841797 -4.22143555 2.93261719 C-2.78582877 0.11905251 -2.78582877 0.11905251 0 0 Z " fill="#E22462" transform="translate(241.28515625,183.90234375)"/>
<path d="M0 0 C2.51625 -0.0825 5.0325 -0.165 7.625 -0.25 C8.79603271 -0.30462402 8.79603271 -0.30462402 9.99072266 -0.36035156 C15.11659767 -0.44103302 17.91981189 0.66334015 22 4 C25.16205748 7.68906706 25.52383784 11.07890732 25.3515625 15.78515625 C24.64757254 20.22029303 22.33534093 22.96167424 18.875 25.65234375 C15.11397966 27.41532203 11.74143723 27.32769022 7.6875 27.1875 C5.150625 27.125625 2.61375 27.06375 0 27 C0 18.09 0 9.18 0 0 Z " fill="#2A2729" transform="translate(324,414)"/>
<path d="M0 0 C4.15235536 1.7151033 6.79673658 4.08308726 9 8 C9.84500202 12.66556672 10.1316274 17.02655222 7.71875 21.234375 C5.02264961 24.43269017 2.90640932 26.78194665 -1.390625 27.2734375 C-10.0622757 27.58144695 -10.0622757 27.58144695 -13.5625 24.75 C-17.70378343 20.07778279 -18.49964668 16.63628731 -18.390625 10.4765625 C-17.75000991 6.4150628 -15.98077126 4.77281047 -13 2 C-8.74221781 -0.83852146 -4.9963923 -0.51245049 0 0 Z " fill="#272425" transform="translate(273,414)"/>
<path d="M0 0 C13.86 0 27.72 0 42 0 C42 3.63 42 7.26 42 11 C28.14 11 14.28 11 0 11 C0 7.37 0 3.74 0 0 Z " fill="#5DBA47" transform="translate(215,157)"/>
<path d="M0 0 C13.86 0 27.72 0 42 0 C42 3.3 42 6.6 42 10 C28.14 10 14.28 10 0 10 C0 6.7 0 3.4 0 0 Z " fill="#61B94D" transform="translate(338,208)"/>
<path d="M0 0 C6.27 0 12.54 0 19 0 C19 1.98 19 3.96 19 6 C15.04 6 11.08 6 7 6 C7 7.32 7 8.64 7 10 C10.3 10 13.6 10 17 10 C17 11.98 17 13.96 17 16 C13.7 16 10.4 16 7 16 C7 17.65 7 19.3 7 21 C10.96 21 14.92 21 19 21 C19 22.98 19 24.96 19 27 C12.73 27 6.46 27 0 27 C0 18.09 0 9.18 0 0 Z " fill="#201E1F" transform="translate(391,414)"/>
<path d="M0 0 C3.125 1.3125 3.125 1.3125 5 3 C5.33 3.99 5.66 4.98 6 6 C4.3125 7.625 4.3125 7.625 2 9 C-0.4375 8.1875 -0.4375 8.1875 -3 7 C-5.62625139 6.66574265 -5.62625139 6.66574265 -8 7 C-10.60704898 9.60704898 -10.23905333 11.47338241 -10.265625 15.02734375 C-10.10382514 17.31952326 -10.10382514 17.31952326 -8 20 C-4.53058454 19.54177532 -1.32604951 19.10868317 2 18 C4.1875 19.4375 4.1875 19.4375 6 21 C5.05715489 23.35711277 4.43138252 24.72627521 2.2578125 26.10546875 C-2.04144187 27.80880656 -6.46999686 27.64246065 -11 27 C-14.42601406 25.36470335 -16.39555943 22.98908456 -18.375 19.75 C-19.40857749 15.20225903 -20.32712924 10.40925001 -17.984375 6.15625 C-12.67670771 -0.36642547 -7.93344563 -0.76550791 0 0 Z " fill="#272526" transform="translate(209,414)"/>
<path d="M0 0 C0.969375 0.495 1.93875 0.99 2.9375 1.5 C6.8669006 3.42460437 10.68035244 3.8812081 15 3 C15.66 2.01 16.32 1.02 17 0 C20.125 -0.1875 20.125 -0.1875 23 0 C22.58534283 4.83766699 20.5801385 6.85646376 17 10 C13.54835453 11.72582274 9.78157752 11.37318199 6 11 C3.6485148 10.04346365 1.31254012 9.04718798 -1 8 C-4.21160696 7.49734308 -4.21160696 7.49734308 -7 8 C-7.99 9.485 -7.99 9.485 -9 11 C-12.625 11.1875 -12.625 11.1875 -16 11 C-15.49268371 6.60325886 -12.88085945 4.16191891 -10 1 C-6.81219917 -0.59390041 -3.47022435 -0.39211575 0 0 Z " fill="#4CABD9" transform="translate(197,274)"/>
<path d="M0 0 C5.28 0 10.56 0 16 0 C16 22.11 16 44.22 16 67 C10.72 67 5.44 67 0 67 C0 63.7 0 60.4 0 57 C1.65 57 3.3 57 5 57 C5 57.66 5 58.32 5 59 C4.01 59 3.02 59 2 59 C2 60.98 2 62.96 2 65 C5.96 65 9.92 65 14 65 C14 43.88 14 22.76 14 1 C10.04 1 6.08 1 2 1 C2 2.98 2 4.96 2 7 C3.65 7.33 5.3 7.66 7 8 C7 24.5 7 41 7 58 C6.67 58 6.34 58 6 58 C6 41.83 6 25.66 6 9 C4.02 9 2.04 9 0 9 C0 6.03 0 3.06 0 0 Z " fill="#D02D61" transform="translate(225,280)"/>
<path d="M0 0 C1.52144822 0.63863258 3.02163432 1.32963496 4.5 2.0625 C8.69114781 4.08284818 11.42814027 4.3995489 16 3 C16.66 2.01 17.32 1.02 18 0 C21.125 -0.1875 21.125 -0.1875 24 0 C22.98430346 4.36749512 21.54565032 7.3245071 17.90234375 10.0859375 C13.55934679 12.17271633 8.46839391 11.8386821 3.9765625 10.3125 C2.31106903 9.55611869 0.65509648 8.77886893 -1 8 C-3.6704053 7.49758678 -3.6704053 7.49758678 -6 8 C-6.474375 8.495 -6.94875 8.99 -7.4375 9.5 C-9 11 -9 11 -12.1875 11.1875 C-13.115625 11.125625 -14.04375 11.06375 -15 11 C-14.58534283 6.16233301 -12.5801385 4.14353624 -9 1 C-5.8614149 -0.56929255 -3.49227809 -0.27716493 0 0 Z " fill="#51ABD8" transform="translate(290,126)"/>
<path d="M0 0 C4.03589821 2.07248827 6.24993671 3.76300466 8 8 C8.73912644 12.87643176 8.47572368 16.11198246 6.125 20.5 C4 23 4 23 2 24 C1.34 23.67 0.68 23.34 0 23 C-0.625 20.9375 -0.625 20.9375 -1 19 C-1.66 19 -2.32 19 -3 19 C-3.33 19.33 -3.66 19.66 -4 20 C-5.65 20 -7.3 20 -9 20 C-9 15.38 -9 10.76 -9 6 C-6.66666667 6 -4.33333333 6 -2 6 C-1.67 5.34 -1.34 4.68 -1 4 C-0.34 4 0.32 4 1 4 C0.67 2.68 0.34 1.36 0 0 Z " fill="#2A2829" transform="translate(341,415)"/>
<path d="M0 0 C8.91 0 17.82 0 27 0 C27 2.64 27 5.28 27 8 C18.09 8 9.18 8 0 8 C0 5.36 0 2.72 0 0 Z " fill="#B36BA0" transform="translate(352,153)"/>
<path d="M0 0 C18.15 0 36.3 0 55 0 C55 4.95 55 9.9 55 15 C36.85 15 18.7 15 0 15 C0 10.05 0 5.1 0 0 Z M2 2 C2 5.96 2 9.92 2 14 C18.83 14 35.66 14 53 14 C53 10.04 53 6.08 53 2 C36.17 2 19.34 2 2 2 Z " fill="#B86CA3" transform="translate(265,354)"/>
<path d="M0 0 C17.82 0 35.64 0 54 0 C54 4.95 54 9.9 54 15 C36.18 15 18.36 15 0 15 C0 10.05 0 5.1 0 0 Z M1 1 C1 4.96 1 8.92 1 13 C17.83 13 34.66 13 52 13 C52 9.04 52 5.08 52 1 C35.17 1 18.34 1 1 1 Z " fill="#AF639C" transform="translate(266,324)"/>
<path d="M0 0 C13.86 0 27.72 0 42 0 C42 3.63 42 7.26 42 11 C28.14 11 14.28 11 0 11 C0 7.37 0 3.74 0 0 Z M29.9296875 1.21875 C29.13345978 1.24094604 28.33723206 1.26314209 27.51687622 1.28601074 C24.96957681 1.35708045 22.42228838 1.42853587 19.875 1.5 C18.14974029 1.54820246 16.42447988 1.59637986 14.69921875 1.64453125 C10.46613765 1.76272993 6.23306636 1.88127458 2 2 C1.67 4.31 1.34 6.62 1 9 C13.87 9 26.74 9 40 9 C40 6.36 40 3.72 40 1 C36.64205315 1 33.28610492 1.12427777 29.9296875 1.21875 Z " fill="#79BD6A" transform="translate(215,157)"/>
<path d="M0 0 C8.58 0 17.16 0 26 0 C26 2.31 26 4.62 26 7 C17.42 7 8.84 7 0 7 C0 4.69 0 2.38 0 0 Z " fill="#B35299" transform="translate(353,169)"/>
<path d="M0 0 C0.33 0 0.66 0 1 0 C1.02527002 6.53278786 1.04283292 13.06556321 1.05493164 19.59838867 C1.05997317 21.82267732 1.06680623 24.04696263 1.07543945 26.27124023 C1.08751298 29.46078309 1.09322996 32.65028229 1.09765625 35.83984375 C1.10281754 36.84087631 1.10797882 37.84190887 1.11329651 38.87327576 C1.11340981 40.25459435 1.11340981 40.25459435 1.11352539 41.66381836 C1.115746 42.47878281 1.11796661 43.29374725 1.12025452 44.13340759 C1 46 1 46 0 47 C-1.99964982 47.08758003 -4.0023611 47.10696576 -6.00390625 47.09765625 C-7.21884766 47.09443359 -8.43378906 47.09121094 -9.68554688 47.08789062 C-10.96494141 47.07951172 -12.24433594 47.07113281 -13.5625 47.0625 C-14.84576172 47.05798828 -16.12902344 47.05347656 -17.45117188 47.04882812 C-20.6341342 47.03699555 -23.81707274 47.01905944 -27 47 C-27 41.39 -27 35.78 -27 30 C-24.03 30 -21.06 30 -18 30 C-18 30.33 -18 30.66 -18 31 C-20.31 31 -22.62 31 -25 31 C-25 35.62 -25 40.24 -25 45 C-17.08 45 -9.16 45 -1 45 C-0.67 30.15 -0.34 15.3 0 0 Z " fill="#53A5CD" transform="translate(354,312)"/>
<path d="M0 0 C3.5625 0.3125 3.5625 0.3125 5.5 1.4375 C7.10023673 4.26144718 7.00984094 6.11720761 6.5625 9.3125 C4.875 12.1875 4.875 12.1875 2.5625 14.3125 C0 14.8125 0 14.8125 -2.4375 14.3125 C-4.5850075 12.6736127 -5.35403735 11.81596826 -5.80078125 9.12109375 C-5.78402344 8.33863281 -5.76726562 7.55617188 -5.75 6.75 C-5.74613281 5.96496094 -5.74226563 5.17992187 -5.73828125 4.37109375 C-5.18095227 0.55664735 -3.64992223 0.33181111 0 0 Z " fill="#F4F3F3" transform="translate(268.4375,420.6875)"/>
<path d="M0 0 C3.3 0 6.6 0 10 0 C10 4.29 10 8.58 10 13 C6.7 13 3.4 13 0 13 C0 8.71 0 4.42 0 0 Z " fill="#F1B761" transform="translate(176,234)"/>
<path d="M0 0 C3.3 0 6.6 0 10 0 C10.02686553 1.97909398 10.04633375 3.95828971 10.0625 5.9375 C10.07410156 7.03964844 10.08570313 8.14179688 10.09765625 9.27734375 C10 12 10 12 9 13 C5.99668982 13.14193337 3.00782866 13.04236378 0 13 C0 8.71 0 4.42 0 0 Z " fill="#F3B152" transform="translate(205,313)"/>
<path d="M0 0 C6 0 6 0 7.875 1.0625 C9.66830867 4.15097604 9.42841969 6.51143969 9 10 C7.3125 12.4375 7.3125 12.4375 5 14 C3.35 14 1.7 14 0 14 C0 9.38 0 4.76 0 0 Z " fill="#F5F3F4" transform="translate(332,421)"/>
<path d="M0 0 C2.97 0 5.94 0 9 0 C9 3.96 9 7.92 9 12 C6.03 12 3.06 12 0 12 C0 8.04 0 4.08 0 0 Z " fill="#F1AB42" transform="translate(382,241)"/>
<path d="M0 0 C2.97 0 5.94 0 9 0 C9 3.96 9 7.92 9 12 C6.03 12 3.06 12 0 12 C0 8.04 0 4.08 0 0 Z " fill="#F3AB41" transform="translate(392,178)"/>
<path d="M0 0 C7.92 0 15.84 0 24 0 C24 1.32 24 2.64 24 4 C16.08 4 8.16 4 0 4 C0 2.68 0 1.36 0 0 Z " fill="#BC519F" transform="translate(354,155)"/>
<path d="M0 0 C3.375 -0.125 3.375 -0.125 7 0 C7.66 0.66 8.32 1.32 9 2 C8.70241581 4.3381615 8.36760731 6.67182036 8 9 C8.33 9.99 8.66 10.98 9 12 C6 12 6 12 3.8125 10 C3.214375 9.34 2.61625 8.68 2 8 C2 9.32 2 10.64 2 12 C1.34 12 0.68 12 0 12 C0 8.04 0 4.08 0 0 Z " fill="#2A2929" transform="translate(328,462)"/>
<path d="M0 0 C3.375 -0.125 3.375 -0.125 7 0 C7.66 0.66 8.32 1.32 9 2 C8.625 4.625 8.625 4.625 8 7 C6.35 7.33 4.7 7.66 3 8 C3 9.32 3 10.64 3 12 C2.01 12 1.02 12 0 12 C0 8.04 0 4.08 0 0 Z " fill="#302F2F" transform="translate(264,462)"/>
<path d="M0 0 C2.97 0 5.94 0 9 0 C9 0.66 9 1.32 9 2 C7.02 2 5.04 2 3 2 C3 2.99 3 3.98 3 5 C4.65 5 6.3 5 8 5 C8 5.66 8 6.32 8 7 C6.35 7 4.7 7 3 7 C3 7.99 3 8.98 3 10 C4.98 10 6.96 10 9 10 C9 10.66 9 11.32 9 12 C6.03 12 3.06 12 0 12 C0 8.04 0 4.08 0 0 Z " fill="#3B3B3B" transform="translate(307,462)"/>
<path d="M0 0 C0.66 0 1.32 0 2 0 C2 1.65 2 3.3 2 5 C3.98 5 5.96 5 8 5 C8 3.35 8 1.7 8 0 C8.66 0 9.32 0 10 0 C10 3.96 10 7.92 10 12 C9.01 12 8.02 12 7 12 C7 10.35 7 8.7 7 7 C5.35 7 3.7 7 2 7 C2 8.65 2 10.3 2 12 C1.34 12 0.68 12 0 12 C0 8.04 0 4.08 0 0 Z " fill="#393838" transform="translate(285,462)"/>
<path d="M0 0 C1.4540625 0.0309375 1.4540625 0.0309375 2.9375 0.0625 C2.9375 1.0525 2.9375 2.0425 2.9375 3.0625 C1.2875 2.7325 -0.3625 2.4025 -2.0625 2.0625 C-0.67054085 4.8464183 1.09325779 5.04148997 3.9375 6.0625 C3.9375 7.7125 3.9375 9.3625 3.9375 11.0625 C1.22870665 12.41689668 -1.07183268 12.12751451 -4.0625 12.0625 C-4.3925 11.0725 -4.7225 10.0825 -5.0625 9.0625 C-3.0825 9.0625 -1.1025 9.0625 0.9375 9.0625 C0.009375 8.629375 0.009375 8.629375 -0.9375 8.1875 C-3.0625 7.0625 -3.0625 7.0625 -5.0625 5.0625 C-4.45789299 1.07209375 -4.2025713 0.08576676 0 0 Z " fill="#2C2C2C" transform="translate(248.0625,461.9375)"/>
<path d="M0 0 C2.64 0 5.28 0 8 0 C8 0.66 8 1.32 8 2 C6.02 2 4.04 2 2 2 C2 2.99 2 3.98 2 5 C3.65 5 5.3 5 7 5 C7 5.66 7 6.32 7 7 C5.35 7 3.7 7 2 7 C2 7.99 2 8.98 2 10 C3.98 10 5.96 10 8 10 C8 10.66 8 11.32 8 12 C5.36 12 2.72 12 0 12 C0 8.04 0 4.08 0 0 Z " fill="#282828" transform="translate(349,462)"/>
<path d="M0 0 C3.125 -0.1875 3.125 -0.1875 6 0 C5.5206753 4.31392226 4.2542015 6.16569547 1 9 C0.649375 8.525625 0.29875 8.05125 -0.0625 7.5625 C-2.84163543 5.32126175 -5.5144717 5.32882342 -9 5 C-9 4.67 -9 4.34 -9 4 C-7.88625 3.896875 -6.7725 3.79375 -5.625 3.6875 C-4.42875 3.460625 -3.2325 3.23375 -2 3 C-1.34 2.01 -0.68 1.02 0 0 Z " fill="#5BB4DF" transform="translate(214,274)"/>
<path d="M0 0 C1.98 0 3.96 0 6 0 C6 2.64 6 5.28 6 8 C3.69 8 1.38 8 -1 8 C-0.67 5.36 -0.34 2.72 0 0 Z " fill="#FAAB37" transform="translate(178,237)"/>
<path d="M0 0 C0.99 0.33 1.98 0.66 3 1 C3.33 2.98 3.66 4.96 4 7 C-0.95 7 -5.9 7 -11 7 C-11.33 5.68 -11.66 4.36 -12 3 C-11.01 3.495 -11.01 3.495 -10 4 C-7.9625237 4.22858114 -5.91959697 4.41024278 -3.875 4.5625 C-2.23144531 4.68818359 -2.23144531 4.68818359 -0.5546875 4.81640625 C0.28835938 4.87699219 1.13140625 4.93757812 2 5 C1.34 3.35 0.68 1.7 0 0 Z " fill="#FEF4D5" transform="translate(297,190)"/>
<path d="M0 0 C4.29 0 8.58 0 13 0 C16.22265625 5.2734375 16.22265625 5.2734375 17 7 C16.67 7.66 16.34 8.32 16 9 C15.67 8.01 15.34 7.02 15 6 C14.34 6 13.68 6 13 6 C13 5.01 13 4.02 13 3 C9.7 2.67 6.4 2.34 3 2 C2.67 2.99 2.34 3.98 2 5 C1.34 3.35 0.68 1.7 0 0 Z " fill="#EDB259" transform="translate(250,134)"/>
<path d="M0 0 C1.85772162 0.08984301 3.71247985 0.24611861 5.5625 0.4375 C7.08037109 0.59025391 7.08037109 0.59025391 8.62890625 0.74609375 C9.80259766 0.87177734 9.80259766 0.87177734 11 1 C10.67 2.32 10.34 3.64 10 5 C8.54054712 4.91291331 7.08234132 4.80473093 5.625 4.6875 C4.81289063 4.62949219 4.00078125 4.57148438 3.1640625 4.51171875 C1 4 1 4 -1 1 C-0.67 0.67 -0.34 0.34 0 0 Z " fill="#45ADDF" transform="translate(295,131)"/>
<path d="M0 0 C4.95 0 9.9 0 15 0 C18.22265625 5.17578125 18.22265625 5.17578125 19 7 C18.67 7.99 18.34 8.98 18 10 C14 3.25 14 3.25 14 1 C9.71 1 5.42 1 1 1 C1.99 2.98 2.98 4.96 4 7 C3.34 7 2.68 7 2 7 C0 4 0 4 0 0 Z " fill="#FEF6D7" transform="translate(249,133)"/>
<path d="M0 0 C0.598125 0.350625 1.19625 0.70125 1.8125 1.0625 C1.4375 3.5 1.4375 3.5 0.8125 6.0625 C-0.1775 6.5575 -0.1775 6.5575 -1.1875 7.0625 C-1.1875 6.4025 -1.1875 5.7425 -1.1875 5.0625 C-2.5075 5.0625 -3.8275 5.0625 -5.1875 5.0625 C-5.1875 3.4125 -5.1875 1.7625 -5.1875 0.0625 C-2.1875 -0.9375 -2.1875 -0.9375 0 0 Z " fill="#7F7D7E" transform="translate(335.1875,462.9375)"/>
<path d="M0 0 C0.66 0 1.32 0 2 0 C2 3.96 2 7.92 2 12 C1.34 12 0.68 12 0 12 C0 10.02 0 8.04 0 6 C-1.98 6 -3.96 6 -6 6 C-6 5.67 -6 5.34 -6 5 C-4.02 5 -2.04 5 0 5 C0 3.35 0 1.7 0 0 Z " fill="#282727" transform="translate(293,462)"/>
<path d="M0 0 C1.4540625 0.0309375 1.4540625 0.0309375 2.9375 0.0625 C2.9375 1.0525 2.9375 2.0425 2.9375 3.0625 C1.2875 2.7325 -0.3625 2.4025 -2.0625 2.0625 C-1.7325 3.7125 -1.4025 5.3625 -1.0625 7.0625 C-2.3825 6.4025 -3.7025 5.7425 -5.0625 5.0625 C-3.9375 0.08035714 -3.9375 0.08035714 0 0 Z " fill="#383838" transform="translate(248.0625,461.9375)"/>
<path d="M0 0 C0.639375 0.144375 1.27875 0.28875 1.9375 0.4375 C5.28896768 1.0530757 8.6210379 1.3996271 12.01171875 1.71875 C14 2 14 2 16 3 C14.36069007 4.63930993 12.50256326 4.21001367 10.25 4.25 C6.03007308 4.2197713 3.34383304 3.78652753 0 1 C0 0.67 0 0.34 0 0 Z " fill="#59A9CD" transform="translate(291,133)"/>
<path d="M0 0 C0.66 0 1.32 0 2 0 C2.33 3.63 2.66 7.26 3 11 C2.01 11.33 1.02 11.66 0 12 C0 8.04 0 4.08 0 0 Z " fill="#3B3763" transform="translate(368,325)"/>
<path d="M0 0 C3.125 -0.1875 3.125 -0.1875 6 0 C5.625 2.4375 5.625 2.4375 5 5 C4.01 5.495 4.01 5.495 3 6 C3 5.01 3 4.02 3 3 C2.34 2.67 1.68 2.34 1 2 C1 2.66 1 3.32 1 4 C0.01 3.67 -0.98 3.34 -2 3 C-1.34 2.01 -0.68 1.02 0 0 Z " fill="#59A9D0" transform="translate(214,274)"/>
<path d="M0 0 C0.66 0 1.32 0 2 0 C2 0.66 2 1.32 2 2 C2.66 2 3.32 2 4 2 C7.28571429 9.42857143 7.28571429 9.42857143 8 13 C5.68757908 10.83676753 3.9843604 8.62352196 2.3125 5.9375 C1.87550781 5.24527344 1.43851562 4.55304688 0.98828125 3.83984375 C0 2 0 2 0 0 Z " fill="#EBAF53" transform="translate(271,168)"/>
<path d="M0 0 C0.66 1.32 1.32 2.64 2 4 C-0.97 4 -3.94 4 -7 4 C-7.33 3.01 -7.66 2.02 -8 1 C-5.36 1.33 -2.72 1.66 0 2 C0 1.34 0 0.68 0 0 Z " fill="#C73766" transform="translate(263,215)"/>
<path d="M0 0 C0.33 0.99 0.66 1.98 1 3 C0.34 3 -0.32 3 -1 3 C-1 3.66 -1 4.32 -1 5 C-2.65 5.33 -4.3 5.66 -6 6 C-6.33 5.34 -6.66 4.68 -7 4 C-4.69 2.68 -2.38 1.36 0 0 Z " fill="#282557" transform="translate(234,242)"/>
<path d="M0 0 C2.475 0.495 2.475 0.495 5 1 C4.67 1.99 4.34 2.98 4 4 C2.68 4 1.36 4 0 4 C0 2.68 0 1.36 0 0 Z " fill="#C8C6C7" transform="translate(266,464)"/>
<path d="M0 0 C1.66611905 -0.042721 3.33382885 -0.04063832 5 0 C5.33 0.33 5.66 0.66 6 1 C8.32817964 1.36760731 10.6618385 1.70241581 13 2 C13 2.33 13 2.66 13 3 C4.80743982 3.4726477 4.80743982 3.4726477 1.4375 1.5 C0.963125 1.005 0.48875 0.51 0 0 Z " fill="#D9F5FB" transform="translate(199,275)"/>
<path d="M0 0 C0.33 0.66 0.66 1.32 1 2 C2.65 2 4.3 2 6 2 C6 2.66 6 3.32 6 4 C3.69 4 1.38 4 -1 4 C-0.67 2.68 -0.34 1.36 0 0 Z " fill="#5EABCD" transform="translate(182,281)"/>
</svg>
